<svg width="20" height="20" viewBox="0 0 20 20" fill="none" xmlns="http://www.w3.org/2000/svg">
<path fill-rule="evenodd" clip-rule="evenodd" d="M13.1543 2.67547C13.3244 2.25383 13.4095 1.82109 13.4095 1.37726C13.4095 1.31808 13.4058 1.2552 13.3984 1.18863C13.391 1.12205 13.3873 1.05918 13.3873 1C13.1506 1.01479 12.9139 1.05548 12.6772 1.12205C12.4405 1.18863 12.189 1.28849 11.9227 1.42164C11.6712 1.54 11.4381 1.68054 11.2236 1.84328C11.0091 2.00602 10.8205 2.18356 10.6577 2.37589C10.3175 2.74575 10.0586 3.15259 9.88103 3.59643C9.7035 4.04026 9.61473 4.48409 9.61473 4.92793V5.09437C9.61473 5.14615 9.62213 5.20163 9.63692 5.26081C10.1547 5.30519 10.6466 5.20163 11.1127 4.95012C11.5787 4.69861 12.0114 4.34355 12.4109 3.88492C12.7364 3.50026 12.9842 3.09712 13.1543 2.67547ZM16.4024 15.9463C16.5652 15.6578 16.7131 15.3508 16.8462 15.0253C16.9054 14.8922 16.9609 14.7553 17.0127 14.6148C17.0645 14.4742 17.1125 14.3374 17.1569 14.2042C16.935 14.1007 16.7205 13.9823 16.5134 13.8492C16.3062 13.716 16.1065 13.5607 15.9142 13.3831C15.5147 12.9985 15.2078 12.5695 14.9932 12.096C14.7787 11.6226 14.6715 11.0974 14.6715 10.5204C14.6715 9.78069 14.8379 9.12235 15.1708 8.54536C15.5036 7.96837 16.0104 7.48016 16.6909 7.08071C16.3062 6.53331 15.8291 6.11167 15.2595 5.81578C14.6899 5.51989 14.0279 5.34236 13.2734 5.28318C12.9923 5.25359 12.6816 5.26838 12.3413 5.32756C12.0011 5.38674 11.6312 5.4903 11.2317 5.63825C10.8027 5.80099 10.4624 5.91934 10.2109 5.99331C9.95942 6.06729 9.79668 6.10427 9.72271 6.10427C9.61915 6.10427 9.45271 6.07098 9.2234 6.00441C8.99408 5.93783 8.70929 5.83797 8.36902 5.70482C8.01395 5.57167 7.69217 5.47181 7.40368 5.40523C7.11518 5.33866 6.85998 5.30537 6.63806 5.30537C6.23861 5.32017 5.85766 5.37934 5.49519 5.4829C5.13273 5.58647 4.77396 5.74181 4.4189 5.94893C4.07862 6.14126 3.77534 6.37797 3.50904 6.65906C3.24273 6.94016 3.00602 7.25084 2.7989 7.59112C2.5326 8.03495 2.33288 8.51577 2.19973 9.03358C2.06657 9.55138 2 10.1136 2 10.7201C2 11.238 2.04808 11.7705 2.14425 12.3179C2.24041 12.8653 2.38466 13.4201 2.57698 13.9823C2.76931 14.5001 2.98013 14.9883 3.20945 15.447C3.43876 15.9056 3.69396 16.3272 3.97506 16.7119C4.22657 17.0818 4.46328 17.3961 4.6852 17.6551C4.90711 17.914 5.09944 18.1248 5.26218 18.2875C5.54328 18.539 5.82067 18.7239 6.09437 18.8423C6.36807 18.9607 6.63806 19.0124 6.90437 18.9976C7.0819 18.9976 7.28902 18.9644 7.52573 18.8978C7.76244 18.8312 8.02874 18.7387 8.32463 18.6204C8.62052 18.502 8.90162 18.417 9.16792 18.3652C9.43422 18.3134 9.70052 18.2875 9.96682 18.2875C10.2035 18.2875 10.455 18.3134 10.7213 18.3652C10.9876 18.417 11.2613 18.502 11.5424 18.6204C11.8383 18.7387 12.1083 18.8275 12.3524 18.8867C12.5965 18.9459 12.8221 18.9755 13.0293 18.9755C13.3104 18.9755 13.5878 18.9163 13.8615 18.7979C14.1352 18.6796 14.3904 18.5094 14.6271 18.2875C14.7898 18.1396 14.9747 17.9398 15.1819 17.6883C15.389 17.4368 15.6183 17.1335 15.8698 16.7785C16.0621 16.5122 16.2397 16.2348 16.4024 15.9463Z" fill="#303638"/>
</svg>
