<svg width="80" height="80" viewBox="0 0 80 80" fill="none" xmlns="http://www.w3.org/2000/svg">
<path fill-rule="evenodd" clip-rule="evenodd" d="M40 76.3636C60.0831 76.3636 76.3636 60.0831 76.3636 40C76.3636 19.9169 60.0831 3.63636 40 3.63636C19.9169 3.63636 3.63636 19.9169 3.63636 40C3.63636 60.0831 19.9169 76.3636 40 76.3636ZM40 80C62.0914 80 80 62.0914 80 40C80 17.9086 62.0914 0 40 0C17.9086 0 0 17.9086 0 40C0 62.0914 17.9086 80 40 80Z" fill="#FACEA8"/>
<path d="M41.4382 50.0967H38.5352L37.31 21.9717H42.6634L41.4382 50.0967ZM36.7773 58.14C36.7773 56.8971 37.0792 56.0182 37.6829 55.5033C38.2866 54.9706 39.0412 54.7043 39.9467 54.7043C40.8345 54.7043 41.5803 54.9706 42.1839 55.5033C42.8054 56.0182 43.1161 56.8971 43.1161 58.14C43.1161 59.3651 42.8054 60.2618 42.1839 60.83C41.5803 61.3804 40.8345 61.6556 39.9467 61.6556C39.0412 61.6556 38.2866 61.3804 37.6829 60.83C37.0792 60.2618 36.7773 59.3651 36.7773 58.14Z" fill="#F8BB86"/>
</svg>
