<svg width="24" height="24" viewBox="0 0 24 24" fill="none" xmlns="http://www.w3.org/2000/svg">
<path d="M15 5H5C3.34315 5 2 6.34315 2 8V12C2 13.6569 3.34315 15 5 15H15C16.6569 15 18 13.6569 18 12V8C18 6.34315 16.6569 5 15 5Z" fill="#FEDAD1"/>
<path d="M19 9H9C7.34315 9 6 10.3431 6 12V16C6 17.6569 7.34315 19 9 19H19C20.6569 19 22 17.6569 22 16V12C22 10.3431 20.6569 9 19 9Z" fill="#FB6340"/>
<path d="M14 16C15.1046 16 16 15.1046 16 14C16 12.8954 15.1046 12 14 12C12.8954 12 12 12.8954 12 14C12 15.1046 12.8954 16 14 16Z" fill="#FEDAD1"/>
<path d="M9 15C9.55228 15 10 14.5523 10 14C10 13.4477 9.55228 13 9 13C8.44772 13 8 13.4477 8 14C8 14.5523 8.44772 15 9 15Z" fill="#FEDAD1"/>
<path d="M19 15C19.5523 15 20 14.5523 20 14C20 13.4477 19.5523 13 19 13C18.4477 13 18 13.4477 18 14C18 14.5523 18.4477 15 19 15Z" fill="#FEDAD1"/>
</svg>
