<svg width="16" height="16" viewBox="0 0 16 16" fill="none" xmlns="http://www.w3.org/2000/svg">
<g clip-path="url(#clip0_65_13316)">
<path fill-rule="evenodd" clip-rule="evenodd" d="M8 0C6.41775 0 4.87104 0.469192 3.55544 1.34824C2.23985 2.22729 1.21447 3.47672 0.608967 4.93853C0.00346633 6.40034 -0.15496 8.00887 0.153721 9.56072C0.462403 11.1126 1.22433 12.538 2.34315 13.6569C3.46197 14.7757 4.88743 15.5376 6.43928 15.8463C7.99113 16.155 9.59966 15.9965 11.0615 15.391C12.5233 14.7855 13.7727 13.7602 14.6518 12.4446C15.5308 11.129 16 9.58225 16 8C16 5.87827 15.1571 3.84344 13.6569 2.34315C12.1566 0.842855 10.1217 0 8 0ZM11.6 9.6H8.00686C7.74392 9.59279 7.49373 9.48512 7.30774 9.29912C7.12174 9.11313 7.01407 8.86294 7.00686 8.6V4.01029C7.00686 3.74507 7.11222 3.49072 7.29975 3.30318C7.48729 3.11564 7.74164 3.01029 8.00686 3.01029C8.27208 3.01029 8.52643 3.11564 8.71397 3.30318C8.9015 3.49072 9.00686 3.74507 9.00686 4.01029V7.59543H11.6C11.8652 7.59543 12.1196 7.70079 12.3071 7.88832C12.4946 8.07586 12.6 8.33021 12.6 8.59543C12.6 8.86065 12.4946 9.115 12.3071 9.30254C12.1196 9.49007 11.8652 9.59543 11.6 9.59543V9.6Z" fill="#FC7C5F"/>
</g>
<defs>
<clipPath id="clip0_65_13316">
<rect width="16" height="16" fill="white"/>
</clipPath>
</defs>
</svg>
