<svg width="20" height="20" viewBox="0 0 20 20" fill="none" xmlns="http://www.w3.org/2000/svg">
<path d="M7.50065 5.8335H5.00065C4.55862 5.8335 4.1347 6.00909 3.82214 6.32165C3.50958 6.63421 3.33398 7.05814 3.33398 7.50016V15.0002C3.33398 15.4422 3.50958 15.8661 3.82214 16.1787C4.1347 16.4912 4.55862 16.6668 5.00065 16.6668H12.5007C12.9427 16.6668 13.3666 16.4912 13.6792 16.1787C13.9917 15.8661 14.1673 15.4422 14.1673 15.0002V12.5002" stroke="#F5365C" stroke-width="1.2" stroke-linecap="round" stroke-linejoin="round"/>
<path d="M7.5 12.5H10L17.0833 5.41669C17.4149 5.08517 17.6011 4.63553 17.6011 4.16669C17.6011 3.69785 17.4149 3.24821 17.0833 2.91669C16.7518 2.58517 16.3022 2.39893 15.8333 2.39893C15.3645 2.39893 14.9149 2.58517 14.5833 2.91669L7.5 10V12.5Z" stroke="#F5365C" stroke-width="1.2" stroke-linecap="round" stroke-linejoin="round"/>
<path d="M13.334 4.1665L15.834 6.6665" stroke="#F5365C" stroke-width="1.2" stroke-linecap="round" stroke-linejoin="round"/>
</svg>
