<svg width="14" height="14" viewBox="0 0 14 14" fill="none" xmlns="http://www.w3.org/2000/svg">
<path d="M7.42297 8.20313C7.29342 8.27452 7.14792 8.31196 7.00001 8.31196C6.8521 8.31196 6.7066 8.27452 6.57706 8.20313L0.437622 4.81622V11.1563C0.43797 11.5042 0.576362 11.8379 0.822428 12.0839C1.06849 12.33 1.40213 12.4684 1.75012 12.4688H12.2501C12.5981 12.4684 12.9317 12.33 13.1778 12.0839C13.4239 11.8379 13.5623 11.5042 13.5626 11.1563V4.81622L7.42297 8.20313Z" fill="#ADB5BD"/>
<path d="M12.2506 1.53125H1.75061C1.40262 1.5316 1.06898 1.66999 0.822917 1.91606C0.57685 2.16212 0.438458 2.49576 0.43811 2.84375V3.9375C0.438096 3.97664 0.448581 4.01506 0.468473 4.04877C0.488365 4.08247 0.516935 4.11022 0.551204 4.12912L6.89495 7.62912C6.92731 7.64697 6.96366 7.65633 7.00061 7.65633C7.03756 7.65633 7.07391 7.64697 7.10627 7.62912L13.45 4.12912C13.4843 4.11022 13.5129 4.08247 13.5327 4.04877C13.5526 4.01506 13.5631 3.97664 13.5631 3.9375V2.84375C13.5628 2.49576 13.4244 2.16212 13.1783 1.91606C12.9322 1.66999 12.5986 1.5316 12.2506 1.53125Z" fill="#ADB5BD"/>
</svg>
