<svg width="20" height="20" viewBox="0 0 20 20" fill="none" xmlns="http://www.w3.org/2000/svg">
<path fill-rule="evenodd" clip-rule="evenodd" d="M2.20898 8.45815C2.20898 4.24156 5.73254 0.833496 9.9946 0.833496C14.2687 0.833496 17.7923 4.24156 17.7923 8.45815C17.7923 10.5829 17.0196 12.5555 15.7477 14.2275C14.3446 16.0717 12.6152 17.6786 10.6684 18.9399C10.2229 19.2314 9.82089 19.2534 9.33185 18.9399C7.37416 17.6786 5.64473 16.0717 4.25361 14.2275C2.9808 12.5555 2.20898 10.5829 2.20898 8.45815ZM7.4287 8.69556C7.4287 10.1081 8.58138 11.2191 9.9946 11.2191C11.4088 11.2191 12.5726 10.1081 12.5726 8.69556C12.5726 7.29398 11.4088 6.12892 9.9946 6.12892C8.58138 6.12892 7.4287 7.29398 7.4287 8.69556Z" fill="#F5365C"/>
</svg>
