<svg width="16" height="16" viewBox="0 0 16 16" fill="none" xmlns="http://www.w3.org/2000/svg">
<path fill-rule="evenodd" clip-rule="evenodd" d="M6 6H10V4C10 2.89543 9.10457 2 8 2C6.89543 2 6 2.89543 6 4V6ZM12 6C13.0684 6 14 6.77637 14 7.83333V14.1667C14 15.2236 13.0684 16 12 16H4C2.93165 16 2 15.2236 2 14.1667V7.83333C2 6.77637 2.93165 6 4 6V4C4 1.79086 5.79086 0 8 0C10.2091 0 12 1.79086 12 4V6ZM4 8V14H12V8H4ZM8 12C7.44772 12 7 11.5523 7 11C7 10.4477 7.44772 10 8 10C8.55228 10 9 10.4477 9 11C9 11.5523 8.55228 12 8 12Z" fill="#8898AA"/>
</svg>
