<svg width="20" height="20" viewBox="0 0 20 20" fill="none" xmlns="http://www.w3.org/2000/svg">
<path d="M15.1384 11.983C14.5786 11.8625 14.1358 12.1225 13.7437 12.3495C13.3421 12.5833 12.5786 13.2027 12.141 13.0442C9.90022 12.1216 7.79279 10.1604 6.8805 7.91064C6.71972 7.46364 7.33622 6.69526 7.56838 6.28898C7.79365 5.89568 8.04816 5.44868 7.93209 4.88474C7.82719 4.37797 6.47036 2.65148 5.99058 2.17937C5.67415 1.86751 5.34999 1.69598 5.01724 1.66826C3.76618 1.61455 2.36894 3.28387 2.12389 3.68322C1.50997 4.53477 1.51341 5.66786 2.13421 7.04177C3.63033 10.7321 9.28888 16.3014 12.9931 17.8537C13.6766 18.1734 14.3017 18.3336 14.8632 18.3336C15.4126 18.3336 15.9019 18.1803 16.3224 17.8763C16.6396 17.6935 18.3774 16.2269 18.3318 14.9422C18.3043 14.6147 18.1332 14.2873 17.8254 13.9702C17.3567 13.486 15.6414 12.0887 15.1384 11.983Z" fill="#F5365C"/>
</svg>
