<svg width="18" height="18" viewBox="0 0 18 18" fill="none" xmlns="http://www.w3.org/2000/svg">
<path d="M9 16.5C13.1421 16.5 16.5 13.1421 16.5 9C16.5 4.85786 13.1421 1.5 9 1.5C4.85786 1.5 1.5 4.85786 1.5 9C1.5 13.1421 4.85786 16.5 9 16.5Z" fill="#ECEFF2"/>
<path d="M4.19629 14.7595C5.49749 15.8459 7.17245 16.4996 9.0001 16.4996C10.8278 16.4996 12.5027 15.8459 13.8039 14.7595C12.6985 13.3169 10.9579 12.3867 9.0001 12.3867C7.04228 12.3867 5.30173 13.3169 4.19629 14.7595Z" fill="#8898AA"/>
<path d="M8.99991 11.1775C10.6033 11.1775 11.9031 9.87773 11.9031 8.27432C11.9031 6.67091 10.6033 5.37109 8.99991 5.37109C7.3965 5.37109 6.09668 6.67091 6.09668 8.27432C6.09668 9.87773 7.3965 11.1775 8.99991 11.1775Z" fill="#8898AA"/>
</svg>
