<svg width="24" height="24" viewBox="0 0 24 24" fill="none" xmlns="http://www.w3.org/2000/svg">
<path d="M12 21.625C17.3157 21.625 21.625 17.3157 21.625 12C21.625 6.68426 17.3157 2.375 12 2.375C6.68426 2.375 2.375 6.68426 2.375 12C2.375 17.3157 6.68426 21.625 12 21.625Z" stroke="#8898AA" stroke-width="2" stroke-miterlimit="10" stroke-linecap="round" stroke-linejoin="round"/>
<path d="M12 13.375C13.8985 13.375 15.4375 11.836 15.4375 9.9375C15.4375 8.03902 13.8985 6.5 12 6.5C10.1015 6.5 8.5625 8.03902 8.5625 9.9375C8.5625 11.836 10.1015 13.375 12 13.375Z" stroke="#8898AA" stroke-width="2" stroke-miterlimit="10" stroke-linecap="round" stroke-linejoin="round"/>
<path d="M4.71289 18.2559C5.95039 15.4371 8.70039 13.4434 12.0004 13.4434C15.3004 13.4434 18.1191 15.4371 19.2879 18.2559" stroke="#8898AA" stroke-width="2" stroke-miterlimit="10" stroke-linecap="round" stroke-linejoin="round"/>
</svg>
