<svg width="20" height="20" viewBox="0 0 20 20" fill="none" xmlns="http://www.w3.org/2000/svg">
<path d="M4.46554 10.5003C6.0525 12.0873 8.31337 12.9569 10.9221 13.109V15.4351C10.9221 15.7829 11.1829 16.109 11.509 16.2395C11.8351 16.3699 12.2264 16.3047 12.4873 16.0438L17.8351 10.609C18.1612 10.2612 18.1829 9.71773 17.8351 9.39164L12.4873 3.95686C12.2482 3.69599 11.8351 3.63077 11.509 3.76121C11.1829 3.89164 10.9221 4.21773 10.9221 4.56556L10.9221 6.91338C9.18293 6.95686 5.09598 6.78295 3.59598 4.13077C3.44381 3.84817 3.1612 3.69599 2.85685 3.69599C2.79163 3.69599 2.72641 3.69599 2.63946 3.71773C2.24815 3.82643 1.96555 4.15251 1.96555 4.56556C1.98728 4.69599 1.98728 8.02208 4.46554 10.5003ZM11.9221 8.60903C12.3568 8.56556 12.6612 8.19599 12.6612 7.73947V6.69599L15.9221 10.0003L12.6612 13.3047V12.2612C12.6612 11.7829 12.3134 11.3916 11.8351 11.3916C7.1612 11.3916 5.18293 9.15251 4.33511 7.23947C7.40032 9.06556 11.7047 8.63077 11.9221 8.60903Z" fill="#8898AA"/>
</svg>
