<svg width="16" height="16" viewBox="0 0 16 16" fill="none" xmlns="http://www.w3.org/2000/svg">
<path d="M8.46626 12.8607C8.20874 12.7253 7.79152 12.7251 7.53369 12.8607L4.29224 14.5648C3.77658 14.8359 3.43801 14.5925 3.53688 14.016L4.15594 10.4066C4.20512 10.1199 4.07635 9.72302 3.86776 9.51968L1.24537 6.96349C0.828197 6.55685 0.95509 6.15962 1.53389 6.07551L5.15794 5.54891C5.44586 5.50707 5.78349 5.26197 5.91241 5.00075L7.53314 1.71681C7.79096 1.19439 8.20796 1.19232 8.46681 1.71681L10.0875 5.00075C10.2163 5.26165 10.5537 5.50702 10.842 5.54891L14.4661 6.07551C15.0426 6.15928 15.1734 6.55524 14.7546 6.96349L12.1322 9.51968C11.9238 9.72277 11.7948 10.1195 11.844 10.4066L12.4631 14.016C12.5616 14.5902 12.2254 14.837 11.7077 14.5648L8.46626 12.8607Z" fill="#E9A220"/>
</svg>
